<?xml version="1.0" encoding="utf-8"?>
<!-- Generator: Adobe Illustrator 24.2.3, SVG Export Plug-In . SVG Version: 6.00 Build 0)  -->
<svg version="1.1" id="Layer_1" xmlns="http://www.w3.org/2000/svg" xmlns:xlink="http://www.w3.org/1999/xlink" x="0px" y="0px"
	 viewBox="0 0 185 49" style="enable-background:new 0 0 185 49;" xml:space="preserve">
<g>
	<path d="M41.33,34.2l-3.28,10.66H2.8l1-3.28c1.29,0,2.32-0.25,3.11-0.76c0.78-0.51,1.5-1.85,2.17-4.01l7.38-24.23
		c0.21-0.66,0.32-1.16,0.32-1.49c0-0.88-0.37-1.55-1.1-2.01C14.95,8.62,14,8.39,12.85,8.39l1-3.25h19.13l-1,3.25
		c-1.86,0-3.13,0.29-3.84,0.86c-0.7,0.58-1.3,1.66-1.79,3.24L19.15,36.1c-0.45,1.45-0.67,2.4-0.67,2.87c0,1.82,1.86,2.72,5.6,2.72
		c2.48,0,4.48-0.21,6.01-0.62s2.99-1.22,4.39-2.43c1.41-1.21,2.55-2.7,3.43-4.45H41.33z"/>
	<path d="M43.32,27.64c0-3.26,1.21-6.85,3.63-10.75c2.42-3.91,5.44-6.98,9.07-9.21c3.62-2.24,7.66-3.35,12.11-3.35
		c5.57,0,9.9,1.62,13.01,4.86c3.11,3.24,4.66,7.39,4.66,12.45c0,6-2.47,11.5-7.4,16.52c-4.93,5.02-10.68,7.53-17.24,7.53
		c-2.97,0-5.59-0.48-7.87-1.44c-2.28-0.96-4.21-2.34-5.82-4.16c-1.6-1.82-2.7-3.7-3.28-5.65C43.61,32.48,43.32,30.21,43.32,27.64z
		 M53.52,33.67c0,2.81,0.62,4.98,1.86,6.5c1.24,1.52,2.99,2.29,5.26,2.29c4.45,0,8.06-3.03,10.81-9.08
		c2.75-6.05,4.13-11.7,4.13-16.93c0-2.99-0.58-5.22-1.73-6.71c-1.15-1.48-2.88-2.23-5.19-2.23c-4.3,0-7.9,3.01-10.8,9.02
		C54.97,22.55,53.52,28.26,53.52,33.67z"/>
	<path d="M132.3,27.67l-0.73,3.25c-1.19,0.22-2.04,0.61-2.55,1.17c-0.51,0.57-1,1.63-1.46,3.19l-2.87,9.38H124l-3.31-2.43
		c-2.15,1.15-4.35,2.02-6.61,2.59s-4.58,0.86-6.96,0.86c-4.92,0-8.8-1.4-11.63-4.19c-2.83-2.79-4.25-6.51-4.25-11.16
		c0-4.04,1.21-8.26,3.62-12.66c2.41-4.39,5.52-7.72,9.33-9.98s7.77-3.38,11.89-3.38c4.71,0,8.53,1.68,11.46,5.04
		c0.8-1.07,1.5-2.37,2.11-3.9h3.16l-3.02,13.65h-3.28c-0.16-4.51-1.15-7.52-2.99-9.02c-1.84-1.5-3.7-2.26-5.6-2.26
		c-2.75,0-5.38,1.18-7.87,3.54c-2.49,2.36-4.51,5.69-6.05,9.98c-1.54,4.29-2.31,8.11-2.31,11.47c0,3.05,0.71,5.37,2.12,6.96
		c1.42,1.59,3.26,2.39,5.52,2.39c2.56,0,4.62-0.9,6.2-2.71c1.57-1.81,2.36-3.79,2.36-5.96c0-1.48-1.17-2.34-3.52-2.58l1-3.25H132.3z
		"/>
	<path d="M137.72,27.64c0-3.26,1.21-6.85,3.63-10.75c2.42-3.91,5.44-6.98,9.07-9.21c3.62-2.24,7.66-3.35,12.11-3.35
		c5.57,0,9.9,1.62,13.01,4.86c3.11,3.24,4.66,7.39,4.66,12.45c0,6-2.47,11.5-7.4,16.52c-4.93,5.02-10.68,7.53-17.24,7.53
		c-2.97,0-5.59-0.48-7.87-1.44c-2.28-0.96-4.21-2.34-5.82-4.16c-1.6-1.82-2.7-3.7-3.28-5.65C138.01,32.48,137.72,30.21,137.72,27.64
		z M147.91,33.67c0,2.81,0.62,4.98,1.86,6.5c1.24,1.52,2.99,2.29,5.26,2.29c4.45,0,8.06-3.03,10.81-9.08
		c2.75-6.05,4.13-11.7,4.13-16.93c0-2.99-0.58-5.22-1.73-6.71c-1.15-1.48-2.88-2.23-5.19-2.23c-4.3,0-7.9,3.01-10.8,9.02
		C149.36,22.55,147.91,28.26,147.91,33.67z"/>
</g>
</svg>
